# xmcd
#
# Track frame offsets: 
#        150
#        12675
#        27472
#        38298
#        49838
#        63419
#        76603
#        89590
#        101615
#        114961
#        125364
#        137491
#        147148
#        158071
#        170406
#        182935
#        194922
#        206552
#        219957
#        232797
#        244473
#        258832
#        269697
#        286199
#        298887
#
# Disc length: 4171 seconds
#
# Revision: 4
# Processed by: cddbd v1.5.2PL0 Copyright (c) Steve Scherf et al.
# Submitted via: ExactAudioCopyFreeDBPlugin 1.0
#
DISCID=6d104919
DTITLE=Various Artist - A Cellarful of Motown
DYEAR=2010
DGENRE=Soul
TTITLE0=The Blackberries - Kidnapped
TTITLE1=The Fantastic Four - Keep on Tryin' ('Til You Find Love)
TTITLE2=Marvin Gaye and Oma Heard - Your Kiss Kiss
TTITLE3=Brenda Holloway - My Baby Moves Me
TTITLE4=Jr. Walker and the All Stars - Cool Cool Baby
TTITLE5=Joe Stubbs - The Girl I've Chosen to Be My Bride
TTITLE6=The Temptations - You Didn't Show Girl
TTITLE7=The Vows - My Baby Changes Like the Weather
TTITLE8=The Monitors - Doctor of Love
TTITLE9=Robert Dobyne - All I Need is a Chance
TTITLE10=Gladys Knight and the Pips - The Day You Take One (You Have to 
TTITLE10=Take the Other)
TTITLE11=Frank Wilson - Ain't Gonna Tell You
TTITLE12=The Contours - Dancing U.S.A.
TTITLE13=The Marvelettes - That's the Way I See Him
TTITLE14=Mary Wells - Have a Little Patience (And Wait)
TTITLE15=Marvin Gaye - Three Time Loser
TTITLE16=Holland and Dozier - Lead Me and Guide Me
TTITLE17=The Versatones - It's Company Time
TTITLE18=Eddie Holland - Twin Brother
TTITLE19=Carolyn Crawford - Think of the Times
TTITLE20=The Four Tops - You're What's Happening Baby
TTITLE21=Dennis Edwards - I'll Turn to Stone
TTITLE22=Paul Williams - I Need You More Now Than Ever
TTITLE23=Oma Heard - Daddy, Cool
TTITLE24=Barabara McNair - The Real You
EXTD=
EXTT0=
EXTT1=
EXTT2=
EXTT3=
EXTT4=
EXTT5=
EXTT6=
EXTT7=
EXTT8=
EXTT9=
EXTT10=
EXTT11=
EXTT12=
EXTT13=
EXTT14=
EXTT15=
EXTT16=
EXTT17=
EXTT18=
EXTT19=
EXTT20=
EXTT21=
EXTT22=
EXTT23=
EXTT24=
PLAYORDER=
